<svg width="797" height="288" viewBox="0 0 797 288" fill="none" xmlns="http://www.w3.org/2000/svg">
<path d="M68.2865 54.1554L75.7808 80.0541" stroke="#2B2C28"/>
<path d="M134.54 214.196L18.1761 54.7147L248.952 53.4652L134.54 214.196Z" fill="#F1F1F1"/>
<ellipse cx="134.907" cy="98.1054" rx="29.9792" ry="14.912" fill="#555555"/>
<ellipse cx="134.907" cy="98.1054" rx="29.9792" ry="14.912" fill="#2B2C28"/>
<ellipse cx="134.907" cy="98.1055" rx="9.99307" ry="8.63329" fill="#F1F1F1"/>
<path d="M89.105 152.26L114.088 140.487" stroke="#2B2C28"/>
<path d="M95.7671 123.22L116.15 109.209" stroke="#2B2C28"/>
<path d="M54.9622 104.384L96.5999 123.221" stroke="#2B2C28"/>
<path d="M95.6582 122.435L114.921 141.272" stroke="#2B2C28"/>
<path d="M123.732 199.257L134.407 172.795" stroke="#2B2C28"/>
<path d="M170.714 162.463L158.223 160.108L170.715 141.272L146.565 127.93" stroke="#2B2C28"/>
<line y1="-0.5" x2="25.2921" y2="-0.5" transform="matrix(0.852639 -0.5225 0.567872 0.823117 186.537 124.918)" stroke="#2B2C28"/>
<line y1="-0.5" x2="33.0216" y2="-0.5" transform="matrix(0.461915 0.886924 -0.907592 0.419854 191.534 83.1934)" stroke="#2B2C28"/>
<line y1="-0.5" x2="25.2921" y2="-0.5" transform="matrix(0.852639 -0.5225 0.567872 0.823117 154.893 90.3845)" stroke="#2B2C28"/>
<path d="M167.384 54.1541L175.926 77.6839" stroke="#2B2C28"/>
<path d="M75.7809 79.2692L94.9328 69.8497L117.419 86.3328" stroke="#2B2C28"/>
<path d="M133.559 172.666L154.893 185.223" stroke="#2B2C28"/>
<path d="M162.812 98.2067L215.684 69.851" stroke="#2B2C28"/>
<path d="M207.356 53.3696L215.684 70.6371" stroke="#2B2C28"/>
<ellipse cx="134.5" cy="47.5" rx="19.5" ry="15.5" fill="#F1F1F1"/>
<path d="M148 52.8596C148 54.6842 148 53.7719 127.751 53.7719C121 53.7719 121 53.5754 121 52.7895C121 46.2783 127.044 41 134.5 41C141.956 41 148 46.3485 148 52.8596Z" fill="#2B2C28"/>
<path d="M414.998 78.333C414.998 82.8903 413.506 86.5133 410.521 89.2021C407.558 91.891 403.525 93.2354 398.421 93.2354H384.271V112H377.742V63.8408H398.011C403.411 63.8408 407.592 65.1055 410.555 67.6348C413.517 70.1641 414.998 73.7301 414.998 78.333ZM408.436 78.4014C408.436 72.1807 404.699 69.0703 397.225 69.0703H384.271V88.0742H397.498C404.79 88.0742 408.436 84.8499 408.436 78.4014ZM429.524 81.3408C430.846 78.9255 432.43 77.1595 434.275 76.043C436.144 74.9036 438.502 74.334 441.351 74.334C445.361 74.334 448.312 75.3366 450.203 77.3418C452.117 79.3242 453.074 82.6624 453.074 87.3564V112H446.888V88.5527C446.888 85.9551 446.648 84.0296 446.17 82.7764C445.691 81.5003 444.905 80.5661 443.812 79.9736C442.718 79.3812 441.202 79.085 439.266 79.085C436.372 79.085 434.048 80.0876 432.293 82.0928C430.561 84.098 429.695 86.7982 429.695 90.1934V112H423.543V61.2773H429.695V74.4707C429.695 75.8607 429.65 77.2962 429.559 78.7773C429.49 80.2585 429.445 81.113 429.422 81.3408H429.524ZM471.805 112.684C468.09 112.684 465.299 111.704 463.431 109.744C461.562 107.785 460.628 105.096 460.628 101.678C460.628 97.8496 461.881 94.9102 464.388 92.8594C466.917 90.8086 470.984 89.7148 476.59 89.5781L484.896 89.4414V87.4248C484.896 84.417 484.257 82.2637 482.981 80.9648C481.705 79.666 479.7 79.0166 476.966 79.0166C474.209 79.0166 472.203 79.4837 470.95 80.418C469.697 81.3522 468.945 82.8447 468.694 84.8955L462.269 84.3145C463.317 77.6608 468.261 74.334 477.103 74.334C481.751 74.334 485.249 75.4049 487.596 77.5469C489.943 79.666 491.116 82.7422 491.116 86.7754V102.703C491.116 104.526 491.355 105.905 491.834 106.839C492.312 107.75 493.224 108.206 494.568 108.206C495.161 108.206 495.833 108.126 496.585 107.967V111.795C495.035 112.16 493.452 112.342 491.834 112.342C489.555 112.342 487.892 111.749 486.844 110.564C485.818 109.357 485.237 107.477 485.101 104.925H484.896C483.323 107.75 481.489 109.756 479.393 110.94C477.319 112.103 474.79 112.684 471.805 112.684ZM473.206 108.069C475.462 108.069 477.467 107.557 479.222 106.531C480.976 105.506 482.355 104.104 483.357 102.327C484.383 100.527 484.896 98.6813 484.896 96.79V93.748L478.162 93.8848C475.268 93.9303 473.069 94.2266 471.565 94.7734C470.084 95.3203 468.945 96.1634 468.147 97.3027C467.35 98.4421 466.951 99.9346 466.951 101.78C466.951 103.785 467.487 105.335 468.558 106.429C469.651 107.522 471.201 108.069 473.206 108.069ZM501.473 112V83.6309C501.473 81.0332 501.404 78.1621 501.268 75.0176H507.078C507.26 79.2103 507.352 81.7282 507.352 82.5713H507.488C508.468 79.404 509.596 77.2393 510.872 76.0771C512.148 74.915 513.948 74.334 516.272 74.334C517.093 74.334 517.924 74.4479 518.768 74.6758V80.3154C517.947 80.0876 516.854 79.9736 515.486 79.9736C512.934 79.9736 510.986 81.0788 509.642 83.2891C508.297 85.4766 507.625 88.6211 507.625 92.7227V112H501.473ZM534.08 112.684C530.366 112.684 527.575 111.704 525.706 109.744C523.838 107.785 522.903 105.096 522.903 101.678C522.903 97.8496 524.157 94.9102 526.663 92.8594C529.192 90.8086 533.26 89.7148 538.865 89.5781L547.171 89.4414V87.4248C547.171 84.417 546.533 82.2637 545.257 80.9648C543.981 79.666 541.976 79.0166 539.241 79.0166C536.484 79.0166 534.479 79.4837 533.226 80.418C531.972 81.3522 531.22 82.8447 530.97 84.8955L524.544 84.3145C525.592 77.6608 530.537 74.334 539.378 74.334C544.026 74.334 547.524 75.4049 549.871 77.5469C552.218 79.666 553.392 82.7422 553.392 86.7754V102.703C553.392 104.526 553.631 105.905 554.109 106.839C554.588 107.75 555.499 108.206 556.844 108.206C557.436 108.206 558.108 108.126 558.86 107.967V111.795C557.311 112.16 555.727 112.342 554.109 112.342C551.831 112.342 550.167 111.749 549.119 110.564C548.094 109.357 547.513 107.477 547.376 104.925H547.171C545.599 107.75 543.764 109.756 541.668 110.94C539.594 112.103 537.065 112.684 534.08 112.684ZM535.481 108.069C537.737 108.069 539.743 107.557 541.497 106.531C543.252 105.506 544.63 104.104 545.633 102.327C546.658 100.527 547.171 98.6813 547.171 96.79V93.748L540.438 93.8848C537.544 93.9303 535.345 94.2266 533.841 94.7734C532.36 95.3203 531.22 96.1634 530.423 97.3027C529.625 98.4421 529.227 99.9346 529.227 101.78C529.227 103.785 529.762 105.335 530.833 106.429C531.927 107.522 533.476 108.069 535.481 108.069ZM562.005 96.1406V90.6719H579.095V96.1406H562.005ZM633.304 87.6982C633.304 92.734 632.335 97.1432 630.398 100.926C628.484 104.708 625.727 107.614 622.127 109.642C618.527 111.67 614.277 112.684 609.378 112.684C604.433 112.684 600.161 111.681 596.561 109.676C592.983 107.671 590.249 104.777 588.357 100.994C586.466 97.1888 585.521 92.7568 585.521 87.6982C585.521 79.9964 587.628 73.9808 591.844 69.6514C596.059 65.2992 601.927 63.123 609.446 63.123C614.345 63.123 618.595 64.1029 622.195 66.0625C625.796 67.9993 628.541 70.8249 630.433 74.5391C632.347 78.2533 633.304 82.6396 633.304 87.6982ZM626.639 87.6982C626.639 81.7054 625.135 77 622.127 73.582C619.142 70.1641 614.915 68.4551 609.446 68.4551C603.932 68.4551 599.671 70.1413 596.663 73.5137C593.655 76.8861 592.151 81.6143 592.151 87.6982C592.151 93.7367 593.667 98.5332 596.697 102.088C599.751 105.62 603.978 107.386 609.378 107.386C614.938 107.386 619.199 105.677 622.161 102.259C625.146 98.818 626.639 93.9645 626.639 87.6982ZM647.522 81.3408C648.844 78.9255 650.428 77.1595 652.273 76.043C654.142 74.9036 656.5 74.334 659.349 74.334C663.359 74.334 666.31 75.3366 668.201 77.3418C670.115 79.3242 671.072 82.6624 671.072 87.3564V112H664.886V88.5527C664.886 85.9551 664.646 84.0296 664.168 82.7764C663.689 81.5003 662.903 80.5661 661.81 79.9736C660.716 79.3812 659.201 79.085 657.264 79.085C654.37 79.085 652.046 80.0876 650.291 82.0928C648.559 84.098 647.693 86.7982 647.693 90.1934V112H641.541V61.2773H647.693V74.4707C647.693 75.8607 647.648 77.2962 647.557 78.7773C647.488 80.2585 647.443 81.113 647.42 81.3408H647.522Z" fill="#F1F1F1"/>
<path d="M278.07 148.455C272.738 148.455 268.591 150.175 265.629 153.616C262.667 157.034 261.186 161.728 261.186 167.698C261.186 173.6 262.724 178.351 265.8 181.951C268.899 185.529 273.08 187.317 278.344 187.317C285.089 187.317 290.159 183.979 293.554 177.303L298.886 179.969C296.903 184.116 294.112 187.272 290.512 189.437C286.934 191.601 282.776 192.684 278.036 192.684C273.183 192.684 268.979 191.681 265.424 189.676C261.892 187.648 259.192 184.765 257.323 181.028C255.478 177.269 254.555 172.825 254.555 167.698C254.555 160.019 256.628 154.004 260.775 149.651C264.923 145.299 270.665 143.123 278.002 143.123C283.129 143.123 287.413 144.126 290.854 146.131C294.294 148.136 296.824 151.11 298.441 155.052L292.255 157.103C291.138 154.3 289.338 152.158 286.854 150.677C284.394 149.196 281.465 148.455 278.07 148.455ZM315.736 192.684C312.022 192.684 309.231 191.704 307.362 189.744C305.494 187.785 304.56 185.096 304.56 181.678C304.56 177.85 305.813 174.91 308.319 172.859C310.849 170.809 314.916 169.715 320.521 169.578L328.827 169.441V167.425C328.827 164.417 328.189 162.264 326.913 160.965C325.637 159.666 323.632 159.017 320.897 159.017C318.14 159.017 316.135 159.484 314.882 160.418C313.629 161.352 312.877 162.845 312.626 164.896L306.2 164.314C307.248 157.661 312.193 154.334 321.034 154.334C325.683 154.334 329.18 155.405 331.527 157.547C333.874 159.666 335.048 162.742 335.048 166.775V182.703C335.048 184.526 335.287 185.905 335.766 186.839C336.244 187.75 337.156 188.206 338.5 188.206C339.092 188.206 339.765 188.126 340.517 187.967V191.795C338.967 192.16 337.383 192.342 335.766 192.342C333.487 192.342 331.824 191.749 330.775 190.564C329.75 189.357 329.169 187.477 329.032 184.925H328.827C327.255 187.75 325.421 189.756 323.324 190.94C321.251 192.103 318.721 192.684 315.736 192.684ZM317.138 188.069C319.394 188.069 321.399 187.557 323.153 186.531C324.908 185.506 326.286 184.104 327.289 182.327C328.314 180.527 328.827 178.681 328.827 176.79V173.748L322.094 173.885C319.2 173.93 317.001 174.227 315.497 174.773C314.016 175.32 312.877 176.163 312.079 177.303C311.282 178.442 310.883 179.935 310.883 181.78C310.883 183.785 311.418 185.335 312.489 186.429C313.583 187.522 315.132 188.069 317.138 188.069ZM345.404 192V163.631C345.404 161.033 345.336 158.162 345.199 155.018H351.01C351.192 159.21 351.283 161.728 351.283 162.571H351.42C352.4 159.404 353.528 157.239 354.804 156.077C356.08 154.915 357.88 154.334 360.204 154.334C361.024 154.334 361.856 154.448 362.699 154.676V160.315C361.879 160.088 360.785 159.974 359.418 159.974C356.866 159.974 354.918 161.079 353.573 163.289C352.229 165.477 351.557 168.621 351.557 172.723V192H345.404ZM391.923 186.053C390.784 188.423 389.268 190.12 387.377 191.146C385.508 192.171 383.184 192.684 380.404 192.684C375.733 192.684 372.292 191.111 370.082 187.967C367.895 184.822 366.801 180.06 366.801 173.68C366.801 160.783 371.335 154.334 380.404 154.334C383.207 154.334 385.543 154.847 387.411 155.872C389.28 156.897 390.784 158.527 391.923 160.76H391.991L391.923 156.624V141.277H398.075V184.378C398.075 188.229 398.144 190.77 398.28 192H392.401C392.333 191.635 392.253 190.792 392.162 189.471C392.094 188.149 392.06 187.01 392.06 186.053H391.923ZM373.261 173.475C373.261 178.647 373.944 182.35 375.312 184.583C376.679 186.816 378.9 187.933 381.977 187.933C385.463 187.933 387.992 186.725 389.564 184.31C391.137 181.894 391.923 178.146 391.923 173.064C391.923 168.165 391.137 164.576 389.564 162.298C387.992 160.019 385.486 158.88 382.045 158.88C378.946 158.88 376.701 160.031 375.312 162.332C373.944 164.611 373.261 168.325 373.261 173.475ZM463.085 192.41C459.052 192.41 455.657 190.963 452.899 188.069C451.19 189.55 449.242 190.69 447.055 191.487C444.867 192.285 442.577 192.684 440.185 192.684C435.285 192.684 431.492 191.51 428.803 189.163C426.114 186.793 424.77 183.512 424.77 179.319C424.77 172.985 428.677 168.097 436.493 164.656C435.741 163.243 435.092 161.569 434.545 159.632C433.998 157.695 433.725 155.929 433.725 154.334C433.725 150.916 434.761 148.273 436.835 146.404C438.931 144.513 441.894 143.567 445.722 143.567C449.162 143.567 451.931 144.433 454.027 146.165C456.146 147.897 457.206 150.267 457.206 153.274C457.206 155.963 456.158 158.356 454.062 160.452C451.988 162.549 448.376 164.622 443.227 166.673C445.756 171.344 449.094 176.038 453.241 180.755C455.816 176.972 457.764 172.301 459.086 166.741L464.042 168.211C462.606 173.885 460.191 179.228 456.796 184.241C458.983 186.474 461.353 187.591 463.905 187.591C465.523 187.591 466.856 187.409 467.904 187.044V191.658C466.628 192.16 465.022 192.41 463.085 192.41ZM452.011 153.274C452.011 151.634 451.441 150.301 450.302 149.275C449.162 148.227 447.613 147.703 445.653 147.703C443.466 147.703 441.802 148.296 440.663 149.48C439.524 150.643 438.954 152.26 438.954 154.334C438.954 156.932 439.695 159.712 441.176 162.674C444.161 161.466 446.348 160.418 447.738 159.529C449.151 158.641 450.211 157.684 450.917 156.658C451.646 155.633 452.011 154.505 452.011 153.274ZM449.481 184.583C444.97 179.251 441.335 174.044 438.578 168.963C433.201 171.242 430.512 174.671 430.512 179.251C430.512 182.008 431.389 184.196 433.144 185.813C434.921 187.409 437.336 188.206 440.39 188.206C442.007 188.206 443.625 187.898 445.243 187.283C446.861 186.645 448.274 185.745 449.481 184.583ZM515.551 148.455C510.219 148.455 506.072 150.175 503.109 153.616C500.147 157.034 498.666 161.728 498.666 167.698C498.666 173.6 500.204 178.351 503.28 181.951C506.379 185.529 510.561 187.317 515.824 187.317C522.569 187.317 527.639 183.979 531.034 177.303L536.366 179.969C534.384 184.116 531.592 187.272 527.992 189.437C524.415 191.601 520.256 192.684 515.517 192.684C510.663 192.684 506.459 191.681 502.904 189.676C499.372 187.648 496.672 184.765 494.804 181.028C492.958 177.269 492.035 172.825 492.035 167.698C492.035 160.019 494.109 154.004 498.256 149.651C502.403 145.299 508.145 143.123 515.482 143.123C520.609 143.123 524.893 144.126 528.334 146.131C531.775 148.136 534.304 151.11 535.922 155.052L529.735 157.103C528.619 154.3 526.819 152.158 524.335 150.677C521.874 149.196 518.946 148.455 515.551 148.455ZM575.058 173.475C575.058 179.946 573.633 184.765 570.785 187.933C567.937 191.1 563.801 192.684 558.378 192.684C552.978 192.684 548.899 191.043 546.142 187.762C543.384 184.458 542.006 179.695 542.006 173.475C542.006 160.714 547.532 154.334 558.583 154.334C564.234 154.334 568.393 155.895 571.059 159.017C573.725 162.116 575.058 166.935 575.058 173.475ZM568.598 173.475C568.598 168.37 567.834 164.668 566.308 162.366C564.804 160.042 562.263 158.88 558.686 158.88C555.085 158.88 552.476 160.065 550.858 162.435C549.263 164.782 548.466 168.462 548.466 173.475C548.466 178.351 549.252 182.02 550.824 184.48C552.419 186.919 554.914 188.138 558.31 188.138C562.001 188.138 564.633 186.953 566.205 184.583C567.8 182.213 568.598 178.51 568.598 173.475ZM582.748 192V141.277H588.9V192H582.748ZM598.334 192V141.277H604.486V192H598.334ZM618.637 174.808C618.637 179.046 619.514 182.316 621.269 184.617C623.023 186.919 625.587 188.069 628.959 188.069C631.625 188.069 633.756 187.534 635.351 186.463C636.968 185.392 638.062 184.036 638.632 182.396L644.032 183.934C641.822 189.767 636.798 192.684 628.959 192.684C623.49 192.684 619.32 191.054 616.449 187.796C613.601 184.537 612.177 179.695 612.177 173.27C612.177 167.163 613.601 162.48 616.449 159.222C619.32 155.963 623.41 154.334 628.72 154.334C639.589 154.334 645.023 160.885 645.023 173.987V174.808H618.637ZM638.666 170.091C638.324 166.194 637.333 163.357 635.692 161.58C634.052 159.78 631.693 158.88 628.617 158.88C625.632 158.88 623.262 159.882 621.508 161.888C619.776 163.87 618.842 166.604 618.705 170.091H638.666ZM657.567 173.338C657.567 178.26 658.342 181.906 659.892 184.275C661.441 186.645 663.777 187.83 666.898 187.83C669.086 187.83 670.909 187.238 672.367 186.053C673.848 184.868 674.76 183.045 675.102 180.584L681.322 180.994C680.844 184.549 679.328 187.386 676.776 189.505C674.224 191.624 670.989 192.684 667.069 192.684C661.897 192.684 657.943 191.054 655.209 187.796C652.497 184.515 651.142 179.741 651.142 173.475C651.142 167.254 652.509 162.514 655.243 159.256C657.978 155.975 661.897 154.334 667.001 154.334C670.784 154.334 673.917 155.314 676.4 157.273C678.907 159.233 680.479 161.933 681.117 165.374L674.794 165.853C674.475 163.802 673.666 162.173 672.367 160.965C671.068 159.757 669.223 159.153 666.83 159.153C663.572 159.153 661.213 160.236 659.755 162.4C658.297 164.565 657.567 168.211 657.567 173.338ZM702.104 191.727C700.076 192.273 698.002 192.547 695.883 192.547C690.961 192.547 688.5 189.756 688.5 184.173V159.495H684.228V155.018H688.739L690.551 146.746H694.652V155.018H701.488V159.495H694.652V182.84C694.652 184.617 694.937 185.87 695.507 186.6C696.099 187.306 697.113 187.659 698.549 187.659C699.369 187.659 700.554 187.5 702.104 187.181V191.727ZM707.333 147.156V141.277H713.485V147.156H707.333ZM707.333 192V155.018H713.485V192H707.333ZM754.228 173.475C754.228 179.946 752.803 184.765 749.955 187.933C747.107 191.1 742.971 192.684 737.548 192.684C732.147 192.684 728.069 191.043 725.312 187.762C722.554 184.458 721.176 179.695 721.176 173.475C721.176 160.714 726.701 154.334 737.753 154.334C743.404 154.334 747.562 155.895 750.229 159.017C752.895 162.116 754.228 166.935 754.228 173.475ZM747.768 173.475C747.768 168.37 747.004 164.668 745.478 162.366C743.974 160.042 741.433 158.88 737.855 158.88C734.255 158.88 731.646 160.065 730.028 162.435C728.433 164.782 727.636 168.462 727.636 173.475C727.636 178.351 728.422 182.02 729.994 184.48C731.589 186.919 734.084 188.138 737.479 188.138C741.171 188.138 743.803 186.953 745.375 184.583C746.97 182.213 747.768 178.51 747.768 173.475ZM785.399 192V168.553C785.399 166.115 785.16 164.223 784.682 162.879C784.203 161.535 783.44 160.566 782.392 159.974C781.343 159.381 779.805 159.085 777.777 159.085C774.815 159.085 772.479 160.099 770.771 162.127C769.062 164.155 768.207 166.969 768.207 170.569V192H762.055V162.913C762.055 158.606 761.986 155.975 761.85 155.018H767.66C767.683 155.132 767.706 155.439 767.729 155.94C767.751 156.442 767.774 157.023 767.797 157.684C767.842 158.322 767.888 159.541 767.934 161.341H768.036C769.449 158.789 771.078 156.989 772.924 155.94C774.792 154.869 777.105 154.334 779.862 154.334C783.918 154.334 786.881 155.348 788.749 157.376C790.64 159.381 791.586 162.708 791.586 167.356V192H785.399Z" fill="#F1F1F1"/>
</svg>
